<mxfile host="app.diagrams.net" modified="2023-06-07T00:30:59.904Z" agent="Mozilla/5.0 (Macintosh; Intel Mac OS X 10_15_7) AppleWebKit/537.36 (KHTML, like Gecko) Chrome/114.0.0.0 Safari/537.36" version="21.3.7" etag="hYRTKJVAunPxp3ltGRk7" type="github">
  <diagram name="Trang-1" id="OtDYw3Qe3cYVOBPPzo3H">
    <mxGraphModel>
      <root>
        <mxCell id="0" />
        <mxCell id="1" parent="0" />
      </root>
    </mxGraphModel>
  </diagram>
</mxfile>
